PathFileType	4	(X/Y/Z)	walk-thru1-1-TP.trc
DataRate	CameraRate	NumFrames	NumMarkers	Units	OrigDataRate	OrigDataStartFrame	OrigNumFrames
120.00	120.00	       4	60	mm	120.00	396	       452
Frame#	Time	Top.Head			Front.Head			Rear.Head			Jaw			C7			R.Clavicle			L.Clavicle			R.Shoulder			L.Shoulder			R.Scapula			L.Scapula			R.Scap.Inf			R.Biceps.Lateral			R.Elbow			R.Elbow.Medial			R.Forearm			R.Ulna			R.Radius			R.Wrist			R.Thumb.M1			R.Thumb.M2			R.Thumb.M3			R.Finger3.M1			R.Finger3.M2			R.Finger3.M3			L.Biceps.Lateral			L.Elbow			L.Elbow.Medial			L.Forearm			L.Ulna			L.Radius			L.Wrist			L.Thumb.M1			L.Thumb.M2			L.Thumb.M3			L.Finger3.M1			L.Finger3.M2			L.Finger3.M3			V.Sacral			R.ASIS			L.ASIS			R.Thigh			R.Thigh.Front			R.Knee			R.Knee.Medial			R.Shank			R.Ankle			R.Ankle.Medial			R.Heel			R.Toe			R.MedFoot			L.Thigh			L.Knee			L.Knee.Medial			L.Shank			L.Ankle			L.Ankle.Medial			L.Heel			L.Toe			L.MedFoot			V_mid_ASIS			V_R_Knee_JC			V_L_Knee_JC			V_R_Elbow_JC			V_L_Elbow_JC			V_R_Ankle_JC			V_L_Ankle_JC			V_R_Wrist_JC			V_L_Wrist_JC			V_R_ScaTrpz_1stMC_JC			V_R_1stMC_1stPP_JC			V_R_1stPP_1stDP_JC			V_R_LunCap_3rdMC_JC			V_R_3rdMC_3rdPP_JC			V_R_3rdPP_3rdMP_JC			V_R_3rdMP_3rdDP_JC			V_L_ScaTrpz_1stMC_JC			V_L_1stMC_1stPP_JC			V_L_1stPP_1stDP_JC			V_L_LunCap_3rdMC_JC			V_L_3rdMC_3rdPP_JC			V_L_3rdPP_3rdMP_JC			V_L_3rdMP_3rdPP_JC			V_ROOT_JC			V_R_Hip_JC			V_L_Hip_JC			V_R_GlenHum_JC			V_L_GlenHum_JC			V_ForeHead_Ctr			V_Vertex			V_Sagit_Lambdoid_Suture			V_R_FrontoTemp			V_L_FrontoTemporal			V_R_ParietalOccip			V_L_ParietalOcciptal			V_R_Temporal			V_L_Temporal			V_mid_FrontRearHead			V_mid_RLGlenHumCtrs			V_C7_vert			V_C1_vert			V_Mid_Hip			
		X1	Y1	Z1	X2	Y2	Z2	X3	Y3	Z3	X4	Y4	Z4	X5	Y5	Z5	X6	Y6	Z6	X7	Y7	Z7	X8	Y8	Z8	X9	Y9	Z9	X10	Y10	Z10	X11	Y11	Z11	X12	Y12	Z12	X13	Y13	Z13	X14	Y14	Z14	X15	Y15	Z15	X16	Y16	Z16	X17	Y17	Z17	X18	Y18	Z18	X19	Y19	Z19	X20	Y20	Z20	X21	Y21	Z21	X22	Y22	Z22	X23	Y23	Z23	X24	Y24	Z24	X25	Y25	Z25	X26	Y26	Z26	X27	Y27	Z27	X28	Y28	Z28	X29	Y29	Z29	X30	Y30	Z30	X31	Y31	Z31	X32	Y32	Z32	X33	Y33	Z33	X34	Y34	Z34	X35	Y35	Z35	X36	Y36	Z36	X37	Y37	Z37	X38	Y38	Z38	X39	Y39	Z39	X40	Y40	Z40	X41	Y41	Z41	X42	Y42	Z42	X43	Y43	Z43	X44	Y44	Z44	X45	Y45	Z45	X46	Y46	Z46	X47	Y47	Z47	X48	Y48	Z48	X49	Y49	Z49	X50	Y50	Z50	X51	Y51	Z51	X52	Y52	Z52	X53	Y53	Z53	X54	Y54	Z54	X55	Y55	Z55	X56	Y56	Z56	X57	Y57	Z57	X58	Y58	Z58	X59	Y59	Z59	X60	Y60	Z60	

396	3.292	-973.86432	27.05894	1569.41565	-1082.40540	23.84398	1477.51538	-868.70789	34.93547	1479.09631	-1064.93604	36.05223	1334.31238	-862.80756	49.23289	1373.52576	-951.26367	155.31627	1282.65112	-957.72900	-60.76944	1294.75647	-906.76373	235.40053	1277.96716	-903.10931	-150.65704	1293.60754	-818.30743	137.64574	1295.75049	-811.75861	-45.99354	1299.30286	-772.43628	122.32754	1215.72607	-936.78351	285.38638	1136.30444	-922.27484	309.49857	973.92255	-890.90161	238.96709	953.88562	-1007.10815	298.37729	910.02124	-990.88647	324.70801	822.45331	-1060.26038	277.38733	784.28082	-1064.27856	318.31854	751.52509	-1091.41736	276.94455	736.42206	-1104.28162	259.31628	702.10614	-1113.11255	250.25179	660.79681	-1092.46619	329.52838	678.71332	-1095.66309	310.96552	628.05811	-1083.33594	294.18503	592.57361	-887.61755	-212.45865	1149.45642	-844.77588	-228.01917	1004.65369	-824.88617	-149.13231	994.16003	-933.73083	-212.30415	945.69055	-928.47382	-250.75873	854.01447	-982.35651	-193.79292	815.12750	-993.66638	-241.88414	789.99316	-1017.01831	-200.09073	781.52649	-1028.26843	-178.01563	742.74316	-1034.67749	-169.35249	693.34320	-1027.45276	-244.41179	706.85242	-1031.24182	-229.48029	667.90594	-1020.66571	-197.27504	634.42810	-757.11957	50.76327	904.72424	-958.75909	188.91978	970.67700	-925.12286	-128.43800	959.76471	-980.23047	208.04996	581.40851	-1045.24219	128.38019	498.90451	-998.61908	162.67012	445.92093	-1001.15588	50.69617	443.64084	-993.32050	105.85236	273.76480	-912.72272	115.01338	62.32132	-929.11523	26.88799	83.38358	-852.39441	59.32080	40.11575	-1054.35510	87.19711	37.63021	-998.82605	46.25409	64.13751	-970.28247	-176.33296	589.49384	-1009.37585	-166.45256	449.08896	-1046.34167	-47.75848	430.03677	-916.59204	-87.50148	277.56976	-749.98706	-86.87215	160.43184	-783.31024	-2.53007	168.76019	-695.91907	-29.94680	173.81934	-847.17786	-55.29001	58.11063	-828.65698	-23.58001	101.87639																																																																																																																															
397	3.300	-978.74756	27.80952	1569.44592	-1086.96729	23.79018	1477.51550	-873.76862	35.95854	1478.43469	-1069.91895	36.54429	1334.34460	-868.08496	48.97411	1373.71570	-957.12360	156.09409	1282.79065	-963.86011	-60.60303	1294.69409	-913.10272	235.36003	1278.29492	-908.79498	-150.01677	1293.68494	-825.99872	137.74593	1296.30725	-816.24628	-44.00361	1299.11584	-778.10327	122.66431	1216.11719	-943.81641	285.80490	1137.05103	-929.80084	309.51862	973.92505	-901.22174	239.76666	954.11499	-1017.31885	297.91299	911.49780	-1002.98505	326.02213	824.50653	-1072.03516	277.26117	787.07098	-1076.58191	318.02219	753.32349	-1103.84534	276.23254	739.13934	-1117.07117	259.71643	704.35474	-1126.95801	250.21605	664.36438	-1105.70337	329.54498	680.56775	-1109.65088	311.49100	630.47693	-1098.04822	294.76498	594.37500	-892.01660	-213.29010	1149.56531	-848.55261	-228.01530	1004.93304	-830.83472	-148.72368	994.35895	-938.16602	-212.27562	945.42902	-932.98260	-250.72011	854.22461	-987.10577	-194.17099	815.39435	-997.85052	-243.06615	790.40259	-1021.49042	-200.16649	781.39130	-1032.85559	-178.76122	743.53198	-1039.21069	-169.92175	692.92743	-1032.65369	-244.58760	707.07294	-1035.27905	-230.53935	667.15485	-1026.01062	-198.17239	634.27393	-761.95593	51.03757	904.73242	-963.33813	190.20714	970.98657	-929.95050	-128.24359	960.13959	-984.95764	208.34665	581.68628	-1048.55505	129.25381	498.78448	-1000.69031	163.00310	445.54352	-1003.13605	50.61014	443.57407	-994.27240	106.21181	273.11554	-912.81317	114.84265	62.39568	-929.70880	26.28163	83.27891	-852.39441	59.32080	40.11575	-1054.18518	87.09069	37.50283	-998.88965	47.00931	64.11207	-979.25122	-174.87729	590.27032	-1021.89386	-165.47552	450.79480	-1054.79993	-45.70794	431.90683	-930.28363	-87.23586	277.06815	-766.23785	-86.69395	157.02168	-799.42761	-1.61190	165.79526	-711.42780	-30.13214	168.94766	-867.85895	-57.12068	56.98980	-847.32733	-24.52281	101.34431																																																																																																																															
398	3.308	-984.75720	27.41561	1569.28613	-1094.07813	23.94926	1477.54541	-879.20721	36.64851	1478.94373	-1075.27197	36.31316	1334.56897	-873.12299	51.17323	1373.25208	-962.47388	155.90329	1282.53040	-968.31201	-59.74351	1294.93640	-918.73016	235.71568	1278.73145	-914.29382	-150.04526	1293.26379	-831.03174	139.10982	1295.74194	-822.39746	-43.94688	1298.91943	-783.93579	122.56904	1216.18665	-951.13373	285.17551	1137.74927	-939.29901	309.73880	975.21240	-909.44995	241.58482	953.93402	-1027.04504	299.00839	913.61871	-1012.86096	324.67511	825.16376	-1083.71582	276.69626	789.55530	-1088.78540	318.13290	755.92560	-1116.35693	276.08109	742.02686	-1129.71240	259.12421	707.92047	-1139.75024	249.67200	666.70026	-1119.13342	330.23001	685.23389	-1124.67017	309.74789	634.73096	-1114.21960	291.74469	600.75165	-896.31079	-213.39555	1150.13757	-853.12415	-228.05209	1004.68878	-834.87848	-147.26678	994.47852	-942.39081	-212.63014	945.40198	-937.06958	-250.07549	854.23004	-991.77527	-193.99579	815.53723	-1002.71259	-243.18259	790.40332	-1025.42126	-200.97281	781.23029	-1037.99463	-179.06580	743.76508	-1044.20569	-169.99844	692.71912	-1036.50024	-244.00815	706.87274	-1039.34753	-231.33023	668.10675	-1029.23181	-198.89955	634.77728	-767.44086	49.46945	904.88043	-967.71692	191.42300	970.92474	-935.90149	-127.11346	960.15155	-988.09137	207.93463	581.29657	-1050.64148	129.19437	497.90387	-1002.52954	163.24135	445.44333	-1003.86548	50.38737	442.83563	-995.86633	106.81129	273.21286	-912.81317	114.84265	62.39568	-929.47711	26.61058	83.86388	-852.19110	59.32054	40.15115	-1054.86145	87.91634	38.01379	-998.96558	47.13882	64.02638	-988.15485	-172.93675	590.67218	-1033.83044	-163.88565	452.16077	-1065.68469	-45.68279	433.82019	-944.64038	-86.95420	276.89645	-782.17572	-86.09244	153.51137	-813.97394	0.04731	163.80887	-728.16962	-30.19498	163.84550	-887.77454	-58.17458	56.09650	-865.17096	-23.76600	99.37691																																																																																																																															
399	3.317	-989.79059	27.47583	1569.60632	-1099.07935	23.67930	1477.10999	-884.97375	36.24283	1478.81689	-1081.64136	36.73641	1334.21277	-879.84338	51.39887	1374.68152	-967.85968	156.76198	1282.54456	-973.49310	-59.65482	1294.39417	-924.16113	235.68724	1278.75684	-918.39105	-149.44083	1293.31616	-837.89191	139.46530	1295.90930	-827.16266	-44.07099	1299.35669	-788.72546	123.73180	1216.36426	-957.61334	287.55817	1137.81323	-949.88129	311.52170	975.52014	-918.59906	242.19128	954.04260	-1036.14246	298.82156	914.75140	-1024.77869	325.78317	826.23499	-1094.09851	276.55637	792.13599	-1101.00867	316.77710	759.13885	-1128.36450	275.52029	744.78491	-1141.30103	258.85129	710.78186	-1151.67432	249.44604	670.05109	-1131.30420	329.78101	686.53204	-1137.01904	309.41898	636.14984	-1126.90454	291.22620	602.37775	-900.85254	-212.35597	1149.77808	-857.35583	-226.32198	1004.89417	-839.22571	-147.61981	994.86890	-946.65442	-211.46931	945.83063	-941.40814	-250.76620	854.19250	-996.15198	-194.55853	815.41199	-1007.20844	-242.38805	790.35065	-1030.29761	-200.63055	781.27759	-1042.41284	-179.16107	742.84705	-1048.03186	-170.86552	692.90088	-1040.45593	-244.99275	706.75702	-1044.45166	-231.61391	667.92200	-1034.63684	-199.82277	634.54279	-772.08514	48.74483	905.60699	-972.66864	192.19710	971.40637	-940.55359	-126.55423	960.43976	-991.10028	207.84468	581.11627	-1051.99866	128.61586	497.18256	-1004.06268	163.41641	444.81476	-1004.77307	50.64139	442.75421	-996.57922	105.45670	272.23969	-912.80371	114.86564	62.14853	-929.77606	26.45161	83.85914	-852.19110	59.32054	40.15115	-1055.08728	88.10352	37.98616	-998.96558	47.13882	64.02638	-997.76093	-172.73860	591.68042	-1044.92993	-162.67207	453.15805	-1078.39014	-43.49612	435.84207	-959.80945	-85.37430	277.36890	-799.44495	-85.66180	149.86607	-832.15643	-1.40844	160.23904	-744.81897	-28.75780	158.87781	-906.97980	-58.13658	55.94236	-883.93231	-23.70931	98.78040																																																																																																																															
